<?xml version="1.0" encoding="utf-8"?>
<!-- Generator: Adobe Illustrator 26.3.1, SVG Export Plug-In . SVG Version: 6.00 Build 0)  -->
<svg version="1.1" id="Laag_1" xmlns="http://www.w3.org/2000/svg" xmlns:xlink="http://www.w3.org/1999/xlink" x="0px" y="0px"
	 viewBox="0 0 1288.8 290.6" style="enable-background:new 0 0 1288.8 290.6;" xml:space="preserve">
<style type="text/css">
	.st0{fill:#03156B;}
	.st1{fill:#33D19D;}
	.st2{fill:#871DED;}
</style>
<g>
	<g>
		<g>
			<path class="st0" d="M363,195.3h-16.9c-4.2,0-7.2-1.6-9-4.9l-15.1-26h-6.3c-12.2,0-21.6-3.2-28.3-9.7c-6.6-6.5-10-15.8-10-28.1
				V53.2c0-12.2,3.3-21.6,10-28.1c6.6-6.5,16.1-9.7,28.3-9.7h26c12.2,0,21.6,3.2,28.3,9.7c6.6,6.5,10,15.8,10,28.1v73.5
				c0,10.2-2.4,18.5-7.3,24.8c-4.9,6.3-11.8,10.4-20.7,12.1l14.8,25.7c0.8,1.9,0.8,3.3,0,4.4C365.9,194.8,364.7,195.3,363,195.3z
				 M320.6,139H337c4.9,0,8.5-1,10.5-3.1c2.1-2.1,3.1-5.6,3.1-10.5V54.6c0-4.9-1-8.5-3.1-10.5c-2.1-2.1-5.6-3.1-10.5-3.1h-16.5
				c-4.9,0-8.4,1-10.4,3.1c-2,2.1-3,5.6-3,10.5v70.7c0,4.9,1,8.5,3,10.5C312.1,137.9,315.6,139,320.6,139z"/>
			<path class="st0" d="M409.8,159.6V20.3c0-3.2,1.6-4.9,4.9-4.9h55.6c12.2,0,21.6,3.2,28.3,9.7c6.6,6.5,10,15.8,10,27.8v9.5
				c0,13.1-6.1,21.6-18.3,25.5c6.2,0.9,11.1,3.4,14.8,7.5c3.7,4.1,5.6,9.9,5.6,17.5v13.9c0,12.1-3.3,21.3-10,27.8
				c-6.6,6.5-16,9.7-28.1,9.7h-58C411.4,164.5,409.8,162.8,409.8,159.6z M441.8,75.9h23.6c4.9,0,8.6-1,10.9-3.1
				c2.3-2.1,3.5-5.5,3.5-10.3v-9c0-4.8-1.1-8.2-3.4-10.3c-2.2-2.1-5.8-3.1-10.8-3.1h-23.9c-1.7,0-2.5,0.9-2.5,2.5v30.8
				C439.3,75.1,440.1,75.9,441.8,75.9z M441.8,139.9h26c5.1,0,8.8-1,11-3.1c2.2-2.1,3.4-5.5,3.4-10.3V113c0-4.8-1.2-8.2-3.5-10.2
				c-2.3-2-6.1-3-11.4-3h-25.5c-1.7,0-2.5,0.9-2.5,2.6v35C439.3,139,440.1,139.9,441.8,139.9z"/>
			<path class="st0" d="M577.7,164.5h-5.6c-12.2,0-21.6-3.2-28.3-9.7c-6.6-6.5-10-15.8-10-28.1V84c0-12.2,3.3-21.6,10-28.1
				c6.6-6.5,16.1-9.7,28.3-9.7h53.6c3.4,0,5.1,1.6,5.1,4.9v108.5c0,3.2-1.7,4.9-5.1,4.9h-19.5c-3.2,0-4.9-1.6-4.9-4.9v-7.7h-0.9
				c-1.7,4.2-4.7,7.3-9,9.4C587,163.4,582.5,164.5,577.7,164.5z M601.3,121.3V74.3c0-1.7-0.9-2.5-2.8-2.5h-21.8
				c-4.9,0-8.4,1-10.4,3.1c-2,2.1-3,5.6-3,10.5v39.9c0,4.9,1,8.5,3,10.5c2,2.1,5.5,3.1,10.4,3.1h8.6
				C596,139,601.3,133.1,601.3,121.3z"/>
			<path class="st0" d="M675.5,203.6h-14.8c-3.1,0-4.6-1.7-4.6-5.1V183c0-3.4,1.5-5.1,4.6-5.1h4.9c9.7,0,16.3-1.4,19.8-4.1
				c3.5-2.7,6.1-7.9,8-15.6h-12.3c-2.9,0-4.9-1.6-5.8-4.9L648.1,51.1c-0.9-3.2,0.2-4.9,3.5-4.9h20.6c3.1,0,5,1.6,5.8,4.9l19.9,85.5
				h0.9l19.7-85.5c0.6-3.2,2.6-4.9,5.8-4.9h19.5c3.9,0,5.4,1.7,4.6,5.1l-28.3,113.1c-3.4,12.8-8.7,22.6-15.8,29.2
				C697.4,200.3,687.7,203.6,675.5,203.6z"/>
			<path class="st0" d="M848.9,164.5h-76.3c-3.2,0-4.9-1.6-4.9-4.9V20.3c0-3.2,1.6-4.9,4.9-4.9h19.7c3.2,0,4.9,1.6,4.9,4.9v115.9
				c0,1.7,0.9,2.5,2.8,2.5h48.9c3.1,0,4.6,1.7,4.6,5.1v15.8C853.5,162.8,852,164.5,848.9,164.5z"/>
			<path class="st0" d="M926.1,164.5h-20.6c-12.2,0-21.6-3.2-28.3-9.7c-6.6-6.5-10-15.8-10-28.1V84c0-12.2,3.3-21.6,10-28.1
				c6.6-6.5,16.1-9.7,28.3-9.7h20.6c12.1,0,21.4,3.3,28.2,9.9C961,62.7,964.4,72,964.4,84v42.7c0,12.1-3.4,21.4-10.1,27.9
				C947.6,161.2,938.2,164.5,926.1,164.5z M909.9,139.2h11.8c4.9,0,8.5-1,10.5-3c2.1-2,3.1-5.5,3.1-10.4V84.9c0-4.9-1-8.4-3.1-10.4
				c-2.1-2-5.6-3-10.5-3h-11.8c-4.9,0-8.4,1-10.4,3c-2,2-3,5.5-3,10.4v40.8c0,4.9,1,8.4,3,10.4C901.5,138.2,904.9,139.2,909.9,139.2
				z"/>
			<path class="st0" d="M1029.3,159.1h-7.7c-11.9,0-20.9-3.2-27-9.7c-6.1-6.5-9.2-15.8-9.2-28.1V84c0-12.2,3.3-21.6,10-28.1
				c6.6-6.5,16.1-9.7,28.3-9.7h53.6c3.4,0,5.1,1.6,5.1,4.9v114.3c0,12.1-3.4,21.3-10.1,27.8c-6.7,6.5-16.1,9.7-28.2,9.7h-44.5
				c-1.9,0-3.1-0.3-3.8-1c-0.7-0.7-1-1.9-1-3.6v-16c0-3.2,1.6-4.9,4.9-4.9h39.6c4.9,0,8.5-1,10.6-3.1c2.1-2.1,3.1-5.5,3.1-10.3
				v-17.6h-0.9c-1.7,4.2-4.7,7.3-9,9.5C1038.6,158.1,1034.1,159.1,1029.3,159.1z M1052.9,116V74.3c0-1.7-0.9-2.5-2.8-2.5h-21.8
				c-4.9,0-8.4,1-10.4,3.1c-2,2.1-3,5.6-3,10.5V120c0,4.9,1,8.4,3,10.4c2,2,5.5,3,10.4,3h8.6C1047.6,133.4,1052.9,127.6,1052.9,116z
				"/>
			<path class="st0" d="M1109,26.3V6.1c0-3.1,1.5-4.6,4.6-4.6h20.2c3.1,0,4.6,1.5,4.6,4.4v20.4c0,3.1-1.5,4.6-4.6,4.6h-20.2
				C1110.6,30.9,1109,29.4,1109,26.3z"/>
			<path class="st0" d="M1109,159.6V51.1c0-3.2,1.5-4.9,4.6-4.9h19.9c3.2,0,4.9,1.6,4.9,4.9v108.5c0,2-0.3,3.3-1,3.9
				c-0.7,0.6-1.9,0.9-3.6,0.9h-19.9C1110.7,164.5,1109,162.8,1109,159.6z"/>
			<path class="st0" d="M1240.5,143.8v16c0,1.7-0.3,2.9-1,3.6c-0.7,0.7-2,1-3.8,1h-34.5c-12.2,0-21.6-3.2-28.3-9.7
				c-6.6-6.5-10-15.8-10-28.1V84c0-12.2,3.3-21.6,10-28.1c6.6-6.5,16.1-9.7,28.3-9.7h34.5c3.2,0,4.9,1.6,4.9,4.9v16
				c0,1.7-0.3,2.9-1,3.6c-0.7,0.7-2,1-3.8,1h-29.9c-4.8,0-8.2,1-10.3,3.1c-2.1,2.1-3.1,5.6-3.1,10.5v39.9c0,4.9,1,8.5,3.1,10.5
				c2.1,2.1,5.5,3.1,10.3,3.1h29.9C1238.9,139,1240.5,140.6,1240.5,143.8z"/>
		</g>
		<rect x="1259.3" y="139" class="st1" width="25.5" height="25.5"/>
		<g>
			<rect x="155.3" y="152.8" class="st1" width="50.8" height="50.8"/>
			<g>
				<polygon class="st2" points="75,1.5 75,52.3 135.1,52.3 135.1,132.6 186,132.6 186,1.5 				"/>
				<polygon class="st0" points="54.8,71.4 54.8,52.3 54.8,1.5 4,1.5 4,183.4 135.1,183.4 135.1,132.6 54.8,132.6 				"/>
			</g>
		</g>
	</g>
	<g>
		<path class="st1" d="M545.7,278.9h-2.9c-0.6,0-0.9-0.3-0.9-0.9v-36.3c0-0.4-0.2-0.6-0.7-0.6h-8.9c-0.7,0-1-0.3-1-0.9v-2.3
			c0-0.6,0.3-0.9,1-0.9h23.8c0.7,0,1,0.3,1,0.9v2.3c0,0.6-0.3,0.9-1,0.9h-8.9c-0.4,0-0.7,0.2-0.7,0.6V278
			C546.6,278.6,546.3,278.9,545.7,278.9z"/>
		<path class="st1" d="M566.5,278.9h-2.9c-0.6,0-0.9-0.3-0.9-0.9v-44.1c0-0.6,0.3-0.9,0.9-0.9h2.9c0.6,0,0.9,0.3,0.9,0.9v15.1h0.3
			c1.1-2.3,3.3-3.5,6.7-3.5h3.7c3,0,5.3,0.8,6.9,2.5c1.7,1.7,2.5,4.1,2.5,7.1V278c0,0.6-0.3,0.9-0.9,0.9h-2.9
			c-0.6,0-0.9-0.3-0.9-0.9v-22.5c0-3.8-1.8-5.7-5.5-5.7h-3.7c-2,0-3.5,0.5-4.5,1.6c-1,1-1.6,2.5-1.6,4.4V278
			C567.4,278.6,567.1,278.9,566.5,278.9z"/>
		<path class="st1" d="M618.9,278.9h-13.8c-3,0-5.4-0.8-7.1-2.5c-1.7-1.7-2.6-4.1-2.6-7.1v-14c0-3,0.9-5.4,2.6-7.1
			c1.7-1.7,4.1-2.5,7.1-2.5h5.5c3,0,5.4,0.8,7,2.5c1.7,1.7,2.5,4.1,2.5,7.1v8.3c0,0.7-0.3,1-0.9,1h-18.5c-0.4,0-0.7,0.2-0.7,0.6v4
			c0,3.8,1.8,5.7,5.5,5.7h13.3c0.6,0,0.9,0.3,0.9,0.9v2.3C619.8,278.6,619.5,278.9,618.9,278.9z M600.8,261.1h14.1
			c0.4,0,0.7-0.2,0.7-0.7v-5c0-3.7-1.8-5.6-5.5-5.6h-4.4c-3.7,0-5.5,1.9-5.5,5.6v5C600.1,260.8,600.3,261.1,600.8,261.1z"/>
		<path class="st1" d="M648.6,278.9h-2.9c-0.6,0-0.9-0.3-0.9-0.9v-44.1c0-0.6,0.3-0.9,0.9-0.9h2.9c0.6,0,0.9,0.3,0.9,0.9V278
			C649.5,278.6,649.2,278.9,648.6,278.9z M663.6,245.6h3.3c0.3,0,0.6,0.1,0.7,0.3c0.1,0.2,0.1,0.4-0.2,0.8l-9.6,14.9v0.3l10.6,16.1
			c0.2,0.3,0.2,0.6,0.1,0.8c-0.1,0.2-0.4,0.3-0.7,0.3h-3.1c-0.8,0-1.4-0.3-1.8-0.9l-10.1-15.5c-0.3-0.4-0.3-0.9,0-1.4l9.3-14.6
			C662.3,245.9,662.8,245.6,663.6,245.6z"/>
		<path class="st1" d="M696.5,278.9h-13.8c-3,0-5.4-0.8-7.1-2.5c-1.7-1.7-2.6-4.1-2.6-7.1v-14c0-3,0.9-5.4,2.6-7.1
			c1.7-1.7,4.1-2.5,7.1-2.5h5.5c3,0,5.4,0.8,7,2.5c1.7,1.7,2.5,4.1,2.5,7.1v8.3c0,0.7-0.3,1-0.9,1h-18.5c-0.4,0-0.7,0.2-0.7,0.6v4
			c0,3.8,1.8,5.7,5.5,5.7h13.3c0.6,0,0.9,0.3,0.9,0.9v2.3C697.4,278.6,697.1,278.9,696.5,278.9z M678.4,261.1h14.1
			c0.4,0,0.7-0.2,0.7-0.7v-5c0-3.7-1.8-5.6-5.5-5.6h-4.4c-3.7,0-5.5,1.9-5.5,5.6v5C677.7,260.8,677.9,261.1,678.4,261.1z"/>
		<path class="st1" d="M708.4,289.1h-2.9c-0.6,0-0.9-0.3-0.9-0.9v-2.4c0-0.6,0.3-0.9,0.9-0.9h1.6c2.8,0,4.7-0.8,5.9-2.3
			c0.9-1.3,1.7-3.1,2.5-5.4h-1.9c-0.5,0-0.9-0.3-1.1-0.9l-9.6-29.7c-0.2-0.6,0-0.9,0.7-0.9h3.1c0.6,0,0.9,0.3,1.1,0.9l8.4,26.9h0.3
			l8.4-26.9c0.1-0.6,0.5-0.9,1-0.9h3c0.7,0,1,0.3,0.8,1l-9.7,31c-1.1,3.7-2.5,6.5-4.1,8.6C714.2,288.1,711.8,289.1,708.4,289.1z"/>
		<path class="st1" d="M753.8,249.8h-3.6c-0.6,0-0.9-0.3-0.9-0.8v-2.4c0-0.6,0.3-0.9,0.9-0.9h3.6c0.4,0,0.7-0.2,0.7-0.6v-5.6
			c0-0.6,0.3-0.9,0.9-0.9h2.9c0.6,0,0.8,0.3,0.8,0.9v5.6c0,0.4,0.2,0.6,0.7,0.6h6.9c0.7,0,1,0.3,1,0.9v2.4c0,0.6-0.3,0.8-1,0.8h-6.9
			c-0.5,0-0.7,0.2-0.7,0.6v18.8c0,3.7,1.9,5.5,5.7,5.5h2.5c0.7,0,1,0.3,1,0.9v2.4c0,0.6-0.3,0.8-1,0.8h-3.1c-3,0-5.4-0.8-7.2-2.5
			c-1.8-1.7-2.7-4-2.7-7v-19C754.5,250,754.2,249.8,753.8,249.8z"/>
		<path class="st1" d="M790,278.9h-5.6c-3,0-5.4-0.8-7.1-2.5c-1.7-1.7-2.6-4.1-2.6-7.1v-14c0-3,0.9-5.4,2.6-7.1
			c1.7-1.7,4.1-2.5,7.1-2.5h5.6c3,0,5.4,0.8,7.1,2.5c1.7,1.7,2.6,4.1,2.6,7.1v14c0,3-0.9,5.4-2.6,7.1C795.3,278,793,278.9,790,278.9
			z M784.9,274.7h4.6c3.7,0,5.5-1.9,5.5-5.6v-13.7c0-3.7-1.8-5.6-5.5-5.6h-4.6c-3.7,0-5.5,1.9-5.5,5.6v13.7
			C779.4,272.8,781.2,274.7,784.9,274.7z"/>
		<path class="st1" d="M829.1,278.9h-2.9c-0.6,0-0.9-0.3-0.9-0.9v-40.1c0-0.6,0.3-0.9,0.9-0.9h20.3c0.6,0,0.9,0.3,0.9,0.9v2.3
			c0,0.6-0.3,0.9-0.9,0.9h-15.8c-0.4,0-0.7,0.2-0.7,0.6v14.2c0,0.4,0.2,0.6,0.7,0.6h14c0.6,0,0.9,0.3,0.9,0.9v2.3
			c0,0.6-0.3,0.9-0.9,0.9h-14c-0.4,0-0.7,0.2-0.7,0.7V278C830,278.6,829.7,278.9,829.1,278.9z"/>
		<path class="st1" d="M858.9,278.9H856c-0.6,0-0.9-0.3-0.9-0.9v-40.1c0-0.6,0.3-0.9,0.9-0.9h15.3c3,0,5.4,0.9,7,2.6
			c1.7,1.7,2.5,4.1,2.5,7.1v7.2c0,3-0.8,5.4-2.5,7.1c-1.7,1.7-4,2.5-7,2.5h-10.8c-0.4,0-0.7,0.2-0.7,0.6V278
			C859.8,278.6,859.5,278.9,858.9,278.9z M860.5,259.2h10.1c3.7,0,5.5-1.9,5.5-5.6v-6.9c0-3.8-1.8-5.7-5.5-5.7h-10.1
			c-0.4,0-0.7,0.2-0.7,0.6v17C859.8,259,860,259.2,860.5,259.2z"/>
		<path class="st1" d="M905.4,278.9h-7c-3,0-5.4-0.8-7.1-2.5c-1.7-1.7-2.6-4.1-2.6-7.1v-22.6c0-3,0.9-5.4,2.6-7.1
			c1.7-1.7,4.1-2.5,7.1-2.5h7c3,0,5.4,0.9,7,2.6c1.7,1.7,2.5,4.1,2.5,7.1v2.7c0,0.7-0.3,1-0.9,1h-2.9c-0.6,0-0.9-0.3-0.9-1v-2.5
			c0-3.8-1.8-5.7-5.4-5.7h-5.9c-3.6,0-5.4,1.9-5.4,5.7V269c0,3.8,1.8,5.7,5.4,5.7h5.9c3.6,0,5.4-1.9,5.4-5.7v-7.3
			c0-0.4-0.2-0.7-0.6-0.7h-6.5c-0.6,0-0.9-0.3-0.9-0.8v-2.4c0-0.6,0.3-0.9,0.9-0.9h10.5c0.9,0,1.3,0.5,1.3,1.4v11
			c0,3-0.8,5.4-2.5,7.1S908.4,278.9,905.4,278.9z"/>
		<path class="st1" d="M925.2,278.9h-3.3c-0.6,0-0.8-0.3-0.6-0.9l12.2-40.1c0.2-0.6,0.6-0.9,1.2-0.9h4.7c0.7,0,1.1,0.3,1.2,0.9
			l12.2,40.1c0.2,0.6,0,0.9-0.6,0.9H949c-0.5,0-0.8-0.3-0.9-0.9l-3.1-9.5h-15.8l-3.1,9.5C926,278.6,925.7,278.9,925.2,278.9z
			 M937,241.8l-6.7,22.6H944l-6.7-22.6H937z"/>
		<path class="st1" d="M971.6,260h-13.3c-0.6,0-0.9-0.3-0.9-0.9v-2.2c0-0.6,0.3-0.9,0.9-0.9h13.3c0.6,0,0.9,0.3,0.9,0.9v2.2
			C972.5,259.7,972.2,260,971.6,260z"/>
		<path class="st1" d="M980.8,278.9h-3.3c-0.6,0-0.8-0.3-0.6-0.9l12.2-40.1c0.2-0.6,0.6-0.9,1.2-0.9h4.7c0.7,0,1.1,0.3,1.2,0.9
			l12.2,40.1c0.2,0.6,0,0.9-0.6,0.9h-3.3c-0.5,0-0.8-0.3-0.9-0.9l-3.1-9.5h-15.8l-3.1,9.5C981.6,278.6,981.3,278.9,980.8,278.9z
			 M992.6,241.8l-6.7,22.6h13.7l-6.7-22.6H992.6z"/>
		<path class="st1" d="M1015.1,269.2v-2.1c0-0.6,0.3-0.9,0.9-0.9h2.9c0.6,0,0.9,0.3,0.9,0.9v1.7c0,3.9,1.9,5.9,5.8,5.9h5.7
			c3.9,0,5.8-2,5.8-6v-2.2c0-3.1-2.6-5.2-7.8-6.1c-2.2-0.4-4.4-0.8-6.5-1.4c-2.2-0.5-4-1.5-5.5-3c-1.5-1.5-2.3-3.6-2.3-6.2v-3.2
			c0-3,0.9-5.4,2.6-7.1c1.7-1.7,4.1-2.6,7.1-2.6h7.2c3,0,5.3,0.9,7,2.6c1.7,1.7,2.6,4.1,2.6,7.1v1.6c0,0.7-0.3,1-0.8,1h-3
			c-0.6,0-0.8-0.3-0.8-1V247c0-4-1.9-5.9-5.8-5.9h-5.5c-3.9,0-5.8,2.1-5.8,6.2v2.6c0,2.2,1.5,3.7,4.4,4.6c1.3,0.3,2.7,0.7,4.3,0.9
			c1.6,0.3,3.1,0.7,4.7,1.1c1.6,0.5,3,1,4.3,1.7c1.3,0.7,2.4,1.7,3.2,3.1c0.8,1.4,1.2,3,1.2,5v2.9c0,3-0.9,5.4-2.6,7.1
			c-1.7,1.7-4.1,2.6-7,2.6h-7.5c-3,0-5.3-0.9-7-2.6C1015.9,274.6,1015.1,272.2,1015.1,269.2z"/>
		<path class="st1" d="M1056.8,237.8V278c0,0.6-0.3,0.9-0.9,0.9h-2.9c-0.6,0-0.9-0.3-0.9-0.9v-40.1c0-0.6,0.3-0.9,0.9-0.9h2.9
			C1056.5,236.9,1056.8,237.2,1056.8,237.8z"/>
		<path class="st1" d="M1084.3,278.9h-7.8c-3,0-5.4-0.8-7.1-2.5c-1.7-1.7-2.6-4.1-2.6-7.1v-22.6c0-3,0.9-5.4,2.6-7.1
			c1.7-1.7,4.1-2.5,7.1-2.5h7.8c3,0,5.4,0.8,7.1,2.5c1.7,1.7,2.6,4.1,2.6,7.1v3.2c0,0.6-0.3,0.9-0.9,0.9h-2.9
			c-0.6,0-0.9-0.3-0.9-0.9v-3c0-3.8-1.8-5.7-5.5-5.7h-6.7c-3.6,0-5.4,1.9-5.4,5.7V269c0,3.8,1.8,5.7,5.4,5.7h6.7
			c3.7,0,5.5-1.9,5.5-5.7v-3c0-0.6,0.3-0.9,0.9-0.9h2.9c0.6,0,0.9,0.3,0.9,0.9v3.2c0,3-0.9,5.4-2.6,7.1
			C1089.7,278,1087.3,278.9,1084.3,278.9z"/>
		<path class="st1" d="M1131.3,278.9h-3.9c-3,0-5.3-0.8-6.9-2.5c-1.7-1.7-2.5-4.1-2.5-7.1v-14c0-3,0.8-5.4,2.5-7.1
			c1.7-1.7,4-2.5,6.9-2.5h3.9c3.4,0,5.6,1.2,6.7,3.5h0.3v-15.1c0-0.6,0.3-0.9,0.8-0.9h3c0.6,0,0.8,0.3,0.8,0.9V278
			c0,0.6-0.3,0.9-0.8,0.9h-3c-0.6,0-0.8-0.3-0.8-0.9v-2.5h-0.3C1137,277.7,1134.7,278.9,1131.3,278.9z M1138.3,268.7v-12.9
			c0-1.9-0.5-3.4-1.6-4.4c-1-1-2.5-1.6-4.5-1.6h-4c-3.6,0-5.4,1.9-5.4,5.7V269c0,3.8,1.8,5.7,5.4,5.7h4c2,0,3.5-0.5,4.5-1.6
			C1137.8,272.1,1138.3,270.6,1138.3,268.7z"/>
		<path class="st1" d="M1174.9,278.9H1161c-3,0-5.4-0.8-7.1-2.5c-1.7-1.7-2.6-4.1-2.6-7.1v-14c0-3,0.9-5.4,2.6-7.1
			c1.7-1.7,4.1-2.5,7.1-2.5h5.5c3,0,5.4,0.8,7,2.5c1.7,1.7,2.5,4.1,2.5,7.1v8.3c0,0.7-0.3,1-0.9,1h-18.5c-0.4,0-0.7,0.2-0.7,0.6v4
			c0,3.8,1.8,5.7,5.5,5.7h13.3c0.6,0,0.9,0.3,0.9,0.9v2.3C1175.8,278.6,1175.5,278.9,1174.9,278.9z M1156.7,261.1h14.1
			c0.4,0,0.7-0.2,0.7-0.7v-5c0-3.7-1.8-5.6-5.5-5.6h-4.4c-3.7,0-5.5,1.9-5.5,5.6v5C1156.1,260.8,1156.3,261.1,1156.7,261.1z"/>
		<path class="st1" d="M1195.4,278.9h-11.6c-0.6,0-0.9-0.3-0.9-0.9v-2.3c0-0.6,0.3-0.8,0.9-0.8h11c3.4,0,5.1-1.3,5.1-3.8v-1.2
			c0-2.3-1.1-3.9-3.3-4.8l-7.7-3.3c-2.2-0.9-3.8-2-4.8-3.2c-1-1.2-1.4-2.9-1.4-4.9c0-5.4,2.9-8,8.8-8h10.7c0.6,0,0.9,0.3,0.9,0.9
			v2.3c0,0.6-0.3,0.8-0.9,0.8h-9.9c-1.6,0-2.8,0.3-3.6,1c-0.8,0.7-1.2,1.4-1.2,2.3v1.1c0,1.8,1.2,3.2,3.7,4.2l7.7,3.5
			c2.3,0.9,3.8,2,4.6,3.5c0.8,1.4,1.2,3.4,1.2,5.9C1204.7,276.3,1201.6,278.9,1195.4,278.9z"/>
		<path class="st1" d="M1212.7,240.1V234c0-0.6,0.3-0.9,0.8-0.9h3c0.6,0,0.9,0.3,0.9,0.9v6.1c0,0.6-0.3,0.9-0.9,0.9h-3
			C1213,241,1212.7,240.7,1212.7,240.1z M1212.7,278v-31.5c0-0.6,0.3-0.9,0.8-0.9h3c0.6,0,0.9,0.3,0.9,0.9V278
			c0,0.6-0.3,0.9-0.9,0.9h-2.9C1213,278.9,1212.7,278.6,1212.7,278z"/>
		<path class="st1" d="M1239.4,277.1h-3.7c-3,0-5.3-0.8-6.9-2.5c-1.7-1.7-2.5-4.1-2.5-7.1v-12.2c0-3,0.9-5.4,2.6-7.1
			c1.7-1.7,4.1-2.5,7.1-2.5h14.2c0.6,0,0.9,0.3,0.9,0.9v32.4c0,3-0.9,5.4-2.6,7.1c-1.7,1.7-4.1,2.6-7.1,2.6h-12c-0.7,0-1-0.3-1-0.9
			v-2.4c0-0.6,0.3-0.9,1-0.9h11.4c3.7,0,5.5-1.9,5.5-5.6v-5h-0.3C1244.9,276,1242.7,277.1,1239.4,277.1z M1246.3,266.9v-16.6
			c0-0.4-0.2-0.6-0.7-0.6h-9.1c-3.7,0-5.5,1.9-5.5,5.7v11.8c0,3.8,1.8,5.7,5.5,5.7h3.7c2,0,3.5-0.5,4.5-1.6
			C1245.8,270.3,1246.3,268.9,1246.3,266.9z"/>
		<path class="st1" d="M1263.9,278.9h-2.9c-0.6,0-0.9-0.3-0.9-0.9v-31.5c0-0.6,0.3-0.9,0.9-0.9h2.9c0.6,0,0.9,0.3,0.9,0.9v2.5h0.3
			c1.1-2.3,3.3-3.5,6.7-3.5h3.7c3,0,5.3,0.8,6.9,2.5c1.7,1.7,2.5,4.1,2.5,7.1V278c0,0.6-0.3,0.9-0.9,0.9h-2.9
			c-0.6,0-0.9-0.3-0.9-0.9v-22.5c0-3.8-1.8-5.7-5.5-5.7h-3.7c-2,0-3.5,0.5-4.5,1.6c-1,1-1.6,2.5-1.6,4.4V278
			C1264.9,278.6,1264.6,278.9,1263.9,278.9z"/>
	</g>
</g>
</svg>
